<?xml version="1.0" standalone="no"?>
<!DOCTYPE svg PUBLIC "-//W3C//DTD SVG 20010904//EN"
 "http://www.w3.org/TR/2001/REC-SVG-20010904/DTD/svg10.dtd">
<svg version="1.0" xmlns="http://www.w3.org/2000/svg"
 width="500.000000pt" height="500.000000pt" viewBox="0 0 500.000000 500.000000"
 preserveAspectRatio="xMidYMid meet">
<metadata>
Created by potrace 1.14, written by Peter Selinger 2001-2017
</metadata>
<g transform="translate(0.000000,500.000000) scale(0.100000,-0.100000)"
fill="#000000" stroke="none">
<path d="M2600 4250 l0 -50 -100 0 -100 0 0 -50 0 -50 -50 0 -50 0 0 -50 0
-50 -50 0 -50 0 0 50 0 50 -200 0 -200 0 0 -50 0 -50 -50 0 -50 0 0 -50 0 -50
-50 0 -50 0 0 -150 0 -150 50 0 50 0 0 -100 0 -100 -50 0 -50 0 0 -50 0 -50
-50 0 -50 0 0 -50 0 -50 -50 0 -50 0 0 -200 0 -200 -50 0 -50 0 0 -200 0 -200
-50 0 -50 0 0 -50 0 -50 -50 0 -50 0 0 -50 0 -50 -50 0 -50 0 0 -50 0 -50 -50
0 -50 0 0 -100 0 -100 -50 0 -50 0 0 -50 0 -50 -50 0 -50 0 0 -50 0 -50 -50 0
-50 0 0 -100 0 -100 -50 0 -50 0 0 -50 0 -50 -50 0 -50 0 0 -50 0 -50 -50 0
-50 0 0 -450 0 -450 -50 0 -50 0 0 -50 0 -50 -50 0 -50 0 0 -150 0 -150 50 0
50 0 0 150 0 150 50 0 50 0 0 -150 0 -150 800 0 800 0 0 400 0 400 50 0 50 0
0 350 0 350 -50 0 -50 0 0 100 0 100 -100 0 -100 0 0 50 0 50 -100 0 -100 0 0
50 0 50 -50 0 -50 0 0 50 0 50 -50 0 -50 0 0 -50 0 -50 -50 0 -50 0 0 100 0
100 50 0 50 0 0 50 0 50 50 0 50 0 0 50 0 50 50 0 50 0 0 50 0 50 50 0 50 0 0
200 0 200 50 0 50 0 0 50 0 50 50 0 50 0 0 -50 0 -50 100 0 100 0 0 -100 0
-100 50 0 50 0 0 -100 0 -100 100 0 100 0 0 -50 0 -50 100 0 100 0 0 -50 0
-50 200 0 200 0 0 -50 0 -50 50 0 50 0 0 -50 0 -50 250 0 250 0 0 50 0 50 50
0 50 0 0 50 0 50 50 0 50 0 0 -50 0 -50 100 0 100 0 0 -50 0 -50 100 0 100 0
0 -50 0 -50 50 0 50 0 0 -100 0 -100 50 0 50 0 0 -200 0 -200 50 0 50 0 0
-200 0 -200 50 0 50 0 0 -400 0 -400 -50 0 -50 0 0 -50 0 -50 150 0 150 0 0
400 0 400 50 0 50 0 0 -400 0 -400 50 0 50 0 0 400 0 400 -50 0 -50 0 0 150 0
150 -50 0 -50 0 0 150 0 150 -50 0 -50 0 0 150 0 150 -50 0 -50 0 0 50 0 50
50 0 50 0 0 50 0 50 50 0 50 0 0 150 0 150 -50 0 -50 0 0 50 0 50 -50 0 -50 0
0 200 0 200 -50 0 -50 0 0 250 0 250 -50 0 -50 0 0 50 0 50 -50 0 -50 0 0 300
0 300 -50 0 -50 0 0 50 0 50 -150 0 -150 0 0 50 0 50 -100 0 -100 0 0 50 0 50
-100 0 -100 0 0 50 0 50 -400 0 -400 0 0 -50z m800 -100 l0 -50 100 0 100 0 0
-50 0 -50 -100 0 -100 0 0 50 0 50 -400 0 -400 0 0 -50 0 -50 -100 0 -100 0 0
50 0 50 100 0 100 0 0 50 0 50 400 0 400 0 0 -50z m-1200 -200 l0 -50 -50 0
-50 0 0 -150 0 -150 -50 0 -50 0 0 -100 0 -100 -100 0 -100 0 0 100 0 100 -50
0 -50 0 0 150 0 150 50 0 50 0 0 50 0 50 200 0 200 0 0 -50z m1800 -100 l0
-50 50 0 50 0 0 -150 0 -150 -50 0 -50 0 0 -100 0 -100 -200 0 -200 0 0 100 0
100 -50 0 -50 0 0 -50 0 -50 -100 0 -100 0 0 100 0 100 50 0 50 0 0 -50 0 -50
50 0 50 0 0 150 0 150 50 0 50 0 0 50 0 50 200 0 200 0 0 -50z m-800 -300 l0
-250 -50 0 -50 0 0 -50 0 -50 100 0 100 0 0 -50 0 -50 50 0 50 0 0 -50 0 -50
50 0 50 0 0 50 0 50 50 0 50 0 0 50 0 50 100 0 100 0 0 -50 0 -50 50 0 50 0 0
-50 0 -50 -50 0 -50 0 0 -50 0 -50 50 0 50 0 0 -50 0 -50 -100 0 -100 0 0 -50
0 -50 100 0 100 0 0 -50 0 -50 -50 0 -50 0 0 -50 0 -50 -50 0 -50 0 0 50 0 50
-50 0 -50 0 0 -50 0 -50 -100 0 -100 0 0 50 0 50 -200 0 -200 0 0 -50 0 -50
150 0 150 0 0 -50 0 -50 50 0 50 0 0 -50 0 -50 50 0 50 0 0 -100 0 -100 -250
0 -250 0 0 50 0 50 -50 0 -50 0 0 100 0 100 -50 0 -50 0 0 150 0 150 150 0
150 0 0 50 0 50 -150 0 -150 0 0 50 0 50 150 0 150 0 0 50 0 50 -150 0 -150 0
0 50 0 50 150 0 150 0 0 50 0 50 -300 0 -300 0 0 150 0 150 -50 0 -50 0 0 100
0 100 50 0 50 0 0 50 0 50 350 0 350 0 0 -250z m-1500 -300 l0 -50 -50 0 -50
0 0 -200 0 -200 -50 0 -50 0 0 -200 0 -200 -50 0 -50 0 0 -50 0 -50 -50 0 -50
0 0 -50 0 -50 -50 0 -50 0 0 -50 0 -50 -50 0 -50 0 0 -100 0 -100 -50 0 -50 0
0 -50 0 -50 -50 0 -50 0 0 -50 0 -50 -50 0 -50 0 0 -99 0 -100 -47 -3 -48 -3
-3 -47 -3 -48 -50 0 -49 0 0 -50 0 -50 -50 0 -50 0 0 -600 0 -600 -50 0 -50 0
0 600 0 600 50 0 50 0 0 50 0 50 50 0 50 0 0 50 0 50 50 0 50 0 0 100 0 100
50 0 50 0 0 50 0 50 50 0 50 0 0 50 0 50 50 0 50 0 0 100 0 100 50 0 50 0 0
50 0 50 50 0 50 0 0 50 0 50 50 0 50 0 0 50 0 50 50 0 50 0 0 200 0 200 50 0
50 0 0 200 0 200 50 0 50 0 0 50 0 50 50 0 50 0 0 -50z m2500 0 l0 -50 50 0
50 0 0 -250 0 -250 50 0 50 0 0 -200 0 -200 -100 0 -100 0 0 50 0 50 -100 0
-100 0 0 50 0 50 50 0 50 0 0 50 0 50 50 0 50 0 0 300 0 300 -50 0 -50 0 0 50
0 50 50 0 50 0 0 -50z m200 -1500 l0 -50 50 0 50 0 0 -150 0 -150 50 0 50 0 0
-150 0 -150 50 0 50 0 0 -150 0 -150 -50 0 -50 0 0 150 0 150 -50 0 -50 0 0
150 0 150 -50 0 -50 0 0 150 0 150 -50 0 -50 0 0 50 0 50 50 0 50 0 0 -50z"/>
<path d="M3400 2650 l0 -50 100 0 100 0 0 50 0 50 -100 0 -100 0 0 -50z"/>
<path d="M2200 900 l0 -200 50 0 50 0 0 -350 0 -350 50 0 50 0 0 350 0 350
-50 0 -50 0 0 200 0 200 -50 0 -50 0 0 -200z"/>
<path d="M3900 800 l0 -200 -50 0 -50 0 0 -150 0 -150 -50 0 -50 0 0 -150 0
-150 50 0 50 0 0 150 0 150 50 0 50 0 0 150 0 150 50 0 50 0 0 200 0 200 -50
0 -50 0 0 -200z"/>
</g>
</svg>
